<?xml version="1.0" encoding="UTF-8" standalone="no"?>
<!DOCTYPE svg PUBLIC "-//W3C//DTD SVG 1.1//EN"
 "http://www.w3.org/Graphics/SVG/1.1/DTD/svg11.dtd">
<!-- Generated by graphviz version 5.0.0 (20220707.1540)
 -->
<!-- Title: UmlClassDiagram Pages: 1 -->
<svg width="539pt" height="241pt"
 viewBox="0.00 0.00 538.78 241.40" xmlns="http://www.w3.org/2000/svg" xmlns:xlink="http://www.w3.org/1999/xlink">
<g id="graph0" class="graph" transform="scale(1 1) rotate(0) translate(4 237.4)">
<title>UmlClassDiagram</title>
<polygon fill="white" stroke="transparent" points="-4,4 -4,-237.4 534.78,-237.4 534.78,4 -4,4"/>
<!-- 0 -->
<g id="node1" class="node">
<title>0</title>
<polygon fill="#f2f2f2" stroke="black" points="456.05,-87.5 456.05,-129.1 530.78,-129.1 530.78,-87.5 456.05,-87.5"/>
<text text-anchor="middle" x="493.41" y="-112.5" font-family="Times,serif" font-size="14.00">Admin</text>
<text text-anchor="middle" x="493.41" y="-95.7" font-family="Times,serif" font-size="14.00">Admin.sol</text>
</g>
<!-- 2 -->
<g id="node2" class="node">
<title>2</title>
<polygon fill="#f2f2f2" stroke="black" points="0,-79.1 0,-137.5 154.82,-137.5 154.82,-79.1 0,-79.1"/>
<text text-anchor="middle" x="77.41" y="-120.9" font-family="Times,serif" font-size="14.00">&lt;&lt;Struct&gt;&gt;</text>
<text text-anchor="middle" x="77.41" y="-104.1" font-family="Times,serif" font-size="14.00">Bid</text>
<text text-anchor="middle" x="77.41" y="-87.3" font-family="Times,serif" font-size="14.00">BlindAuctionFactory.sol</text>
</g>
<!-- 1 -->
<g id="node6" class="node">
<title>1</title>
<polygon fill="#f2f2f2" stroke="black" points="228,-0.5 228,-42.1 382.82,-42.1 382.82,-0.5 228,-0.5"/>
<text text-anchor="middle" x="305.41" y="-25.5" font-family="Times,serif" font-size="14.00">BlindAuctionFactory</text>
<text text-anchor="middle" x="305.41" y="-8.7" font-family="Times,serif" font-size="14.00">BlindAuctionFactory.sol</text>
</g>
<!-- 2&#45;&gt;1 -->
<g id="edge5" class="edge">
<title>2&#45;&gt;1</title>
<path fill="none" stroke="black" d="M155.15,-80.67C185.05,-69.76 218.64,-57.22 246.5,-46.56"/>
<polygon fill="black" stroke="black" points="246.85,-46.43 251.02,-40.54 258.05,-42.12 253.89,-48.01 246.85,-46.43"/>
</g>
<!-- 3 -->
<g id="node3" class="node">
<title>3</title>
<polygon fill="#f2f2f2" stroke="black" points="114,-174.5 114,-232.9 268.82,-232.9 268.82,-174.5 114,-174.5"/>
<text text-anchor="middle" x="191.41" y="-216.3" font-family="Times,serif" font-size="14.00">&lt;&lt;Enum&gt;&gt;</text>
<text text-anchor="middle" x="191.41" y="-199.5" font-family="Times,serif" font-size="14.00">AuctionState</text>
<text text-anchor="middle" x="191.41" y="-182.7" font-family="Times,serif" font-size="14.00">BlindAuctionFactory.sol</text>
</g>
<!-- 3&#45;&gt;1 -->
<g id="edge3" class="edge">
<title>3&#45;&gt;1</title>
<path fill="none" stroke="black" d="M198.76,-174.42C202.55,-147.57 208.58,-107.18 228.41,-78.6 236.59,-66.81 248.13,-56.87 259.81,-48.78"/>
<polygon fill="black" stroke="black" points="259.97,-48.67 262.83,-42.05 270.05,-42.15 267.19,-48.77 259.97,-48.67"/>
</g>
<!-- 4 -->
<g id="node4" class="node">
<title>4</title>
<polygon fill="#f2f2f2" stroke="black" points="342,-174.5 342,-232.9 496.82,-232.9 496.82,-174.5 342,-174.5"/>
<text text-anchor="middle" x="419.41" y="-216.3" font-family="Times,serif" font-size="14.00">&lt;&lt;Enum&gt;&gt;</text>
<text text-anchor="middle" x="419.41" y="-199.5" font-family="Times,serif" font-size="14.00">ItemState</text>
<text text-anchor="middle" x="419.41" y="-182.7" font-family="Times,serif" font-size="14.00">BlindAuctionFactory.sol</text>
</g>
<!-- 4&#45;&gt;1 -->
<g id="edge4" class="edge">
<title>4&#45;&gt;1</title>
<path fill="none" stroke="black" d="M425.88,-174.42C426.27,-147.57 420.24,-107.18 400.41,-78.6 392.15,-66.69 380.47,-56.66 368.08,-48.53"/>
<polygon fill="black" stroke="black" points="367.83,-48.38 360.62,-48.68 357.57,-42.15 364.78,-41.84 367.83,-48.38"/>
</g>
<!-- 5 -->
<g id="node5" class="node">
<title>5</title>
<polygon fill="#f2f2f2" stroke="black" points="228,-79.1 228,-137.5 382.82,-137.5 382.82,-79.1 228,-79.1"/>
<text text-anchor="middle" x="305.41" y="-120.9" font-family="Times,serif" font-size="14.00">&lt;&lt;Struct&gt;&gt;</text>
<text text-anchor="middle" x="305.41" y="-104.1" font-family="Times,serif" font-size="14.00">BlindAuction</text>
<text text-anchor="middle" x="305.41" y="-87.3" font-family="Times,serif" font-size="14.00">BlindAuctionFactory.sol</text>
</g>
<!-- 5&#45;&gt;3 -->
<g id="edge1" class="edge">
<title>5&#45;&gt;3</title>
<path fill="none" stroke="black" stroke-dasharray="5,2" d="M270.9,-137.58C259.29,-147.09 246.19,-157.82 234.03,-167.78"/>
<polygon fill="black" stroke="black" points="231.72,-165.15 226.2,-174.2 236.15,-170.57 231.72,-165.15"/>
</g>
<!-- 5&#45;&gt;4 -->
<g id="edge2" class="edge">
<title>5&#45;&gt;4</title>
<path fill="none" stroke="black" stroke-dasharray="5,2" d="M339.93,-137.58C351.54,-147.09 364.63,-157.82 376.79,-167.78"/>
<polygon fill="black" stroke="black" points="374.67,-170.57 384.62,-174.2 379.11,-165.15 374.67,-170.57"/>
</g>
<!-- 5&#45;&gt;1 -->
<g id="edge6" class="edge">
<title>5&#45;&gt;1</title>
<path fill="none" stroke="black" d="M311.82,-78.94C312.21,-71.09 312.27,-62.52 311.98,-54.48"/>
<polygon fill="black" stroke="black" points="311.98,-54.42 307.62,-48.68 311.25,-42.44 315.61,-48.19 311.98,-54.42"/>
</g>
<!-- 1&#45;&gt;0 -->
<g id="edge8" class="edge">
<title>1&#45;&gt;0</title>
<path fill="none" stroke="black" stroke-dasharray="5,2" d="M358.12,-42.21C383.87,-52.37 415.11,-65.37 442.41,-78.6 445.03,-79.87 447.69,-81.21 450.37,-82.59"/>
<polygon fill="black" stroke="black" points="448.96,-85.81 459.43,-87.42 452.24,-79.63 448.96,-85.81"/>
</g>
<!-- 1&#45;&gt;2 -->
<g id="edge11" class="edge">
<title>1&#45;&gt;2</title>
<path fill="none" stroke="black" stroke-dasharray="5,2" d="M246.43,-42.12C218.93,-52.04 185.83,-64.28 156.23,-75.47"/>
<polygon fill="black" stroke="black" points="154.87,-72.25 146.75,-79.06 157.35,-78.79 154.87,-72.25"/>
</g>
<!-- 1&#45;&gt;3 -->
<g id="edge9" class="edge">
<title>1&#45;&gt;3</title>
<path fill="none" stroke="black" stroke-dasharray="5,2" d="M253.25,-42.15C237.17,-51.2 220.99,-63.35 210.41,-78.6 192.98,-103.72 186.22,-137.96 185.1,-164.11"/>
<polygon fill="black" stroke="black" points="181.6,-164.36 184.95,-174.42 188.6,-164.47 181.6,-164.36"/>
</g>
<!-- 1&#45;&gt;4 -->
<g id="edge10" class="edge">
<title>1&#45;&gt;4</title>
<path fill="none" stroke="black" stroke-dasharray="5,2" d="M340.78,-42.15C355.66,-51.2 371.83,-63.35 382.41,-78.6 399.92,-103.83 406.67,-138.26 410.62,-164.46"/>
<polygon fill="black" stroke="black" points="407.17,-165.02 412.07,-174.42 414.09,-164.02 407.17,-165.02"/>
</g>
<!-- 1&#45;&gt;5 -->
<g id="edge7" class="edge">
<title>1&#45;&gt;5</title>
<path fill="none" stroke="black" d="M299.57,-42.44C298.86,-50.36 298.57,-59.73 298.69,-68.84"/>
<polygon fill="black" stroke="black" points="295.19,-69.05 299.01,-78.94 302.19,-68.83 295.19,-69.05"/>
</g>
</g>
</svg>
